<svg width="54" height="54" viewBox="0 0 54 54" fill="none" xmlns="http://www.w3.org/2000/svg">
<rect width="54" height="54" rx="27" fill="#E5ECBB" fill-opacity="0.5"/>
<rect x="0.5" y="0.5" width="53" height="53" rx="26.5" stroke="#556B2F" stroke-opacity="0.12"/>
<g clip-path="url(#clip0_30_96)">
<path d="M27 20.8125C26.6071 20.8125 26.2857 20.5031 26.2857 20.125V19.4375C26.2857 17.5383 27.8839 16 29.8571 16H30.5714C30.9643 16 31.2857 16.3094 31.2857 16.6875V17.375C31.2857 19.2742 29.6875 20.8125 27.7143 20.8125H27ZM17 28.375C17 25.0965 18.5937 21.5 22 21.5C23.2188 21.5 24.6652 21.9426 25.692 22.3293C26.5312 22.643 27.4732 22.643 28.3125 22.3293C29.3348 21.9469 30.7857 21.5 32.0045 21.5C35.4107 21.5 37.0045 25.0965 37.0045 28.375C37.0045 33.875 33.433 38 29.8616 38C29.125 38 28.1607 37.7164 27.5625 37.5145C27.2009 37.3941 26.808 37.3941 26.4464 37.5145C25.8482 37.7164 24.8839 38 24.1473 38C20.5759 38 17.0045 33.875 17.0045 28.375H17Z" fill="#556B2F"/>
</g>
<defs>
<clipPath id="clip0_30_96">
<rect width="20" height="22" fill="white" transform="translate(17 16)"/>
</clipPath>
</defs>
</svg>
