<svg width="55" height="54" viewBox="0 0 55 54" fill="none" xmlns="http://www.w3.org/2000/svg">
<rect x="0.666504" width="54" height="54" rx="27" fill="#E5ECBB" fill-opacity="0.5"/>
<rect x="1.1665" y="0.5" width="53" height="53" rx="26.5" stroke="#556B2F" stroke-opacity="0.12"/>
<path d="M36.9165 18H19.1978C18.974 18 18.7594 18.0889 18.6011 18.2471C18.4429 18.4054 18.354 18.62 18.354 18.8438V28.9688C18.3555 30.3109 18.8894 31.5977 19.8385 32.5468C20.7875 33.4959 22.0743 34.0297 23.4165 34.0312H29.3228C30.6649 34.0297 31.9517 33.4959 32.9008 32.5468C33.8499 31.5977 34.3837 30.3109 34.3853 28.9688V24.75H35.3345C36.2013 24.749 37.0324 24.4042 37.6453 23.7913C38.2582 23.1784 38.603 22.3473 38.604 21.4805V19.6875C38.604 19.2399 38.4262 18.8107 38.1097 18.4943C37.7933 18.1778 37.3641 18 36.9165 18ZM36.9165 21.4805C36.9165 21.9 36.7498 22.3024 36.4531 22.5991C36.1564 22.8958 35.7541 23.0625 35.3345 23.0625H34.3853V19.6875H36.9165V21.4805ZM35.229 35.7188H17.5103C17.2865 35.7188 17.0719 35.8076 16.9136 35.9659C16.7554 36.1241 16.6665 36.3387 16.6665 36.5625C16.6665 36.7863 16.7554 37.0009 16.9136 37.1591C17.0719 37.3174 17.2865 37.4062 17.5103 37.4062H35.229C35.4528 37.4062 35.6674 37.3174 35.8256 37.1591C35.9839 37.0009 36.0728 36.7863 36.0728 36.5625C36.0728 36.3387 35.9839 36.1241 35.8256 35.9659C35.6674 35.8076 35.4528 35.7188 35.229 35.7188Z" fill="#556B2F"/>
</svg>
