<svg width="54" height="54" viewBox="0 0 54 54" fill="none" xmlns="http://www.w3.org/2000/svg">
<rect width="54" height="54" rx="27" fill="#E5ECBB" fill-opacity="0.5"/>
<rect x="0.5" y="0.5" width="53" height="53" rx="26.5" stroke="#556B2F" stroke-opacity="0.12"/>
<path d="M27.9658 37.1095C27.8373 37.3027 27.6373 37.4369 27.4098 37.4826C27.1823 37.5284 26.946 37.4819 26.7528 37.3534C23.4564 35.1605 19.5842 33.9936 15.625 34C15.3929 34 15.1704 33.9078 15.0063 33.7437C14.8422 33.5796 14.75 33.3571 14.75 33.125C14.75 32.8929 14.8422 32.6704 15.0063 32.5063C15.1704 32.3422 15.3929 32.25 15.625 32.25C19.9291 32.2434 24.1386 33.5123 27.7219 35.8966C27.915 36.0251 28.0492 36.2251 28.095 36.4525C28.1407 36.68 28.0943 36.9163 27.9658 37.1095ZM15.625 28.75C15.3929 28.75 15.1704 28.8422 15.0063 29.0063C14.8422 29.1704 14.75 29.3929 14.75 29.625C14.75 29.8571 14.8422 30.0796 15.0063 30.2437C15.1704 30.4078 15.3929 30.5 15.625 30.5C21.81 30.4857 27.7511 32.911 32.1592 37.2495C32.2405 37.3332 32.3378 37.3997 32.4452 37.4452C32.5526 37.4907 32.668 37.5143 32.7847 37.5145C32.9013 37.5148 33.0168 37.4917 33.1244 37.4466C33.232 37.4016 33.3295 37.3355 33.4112 37.2522C33.4929 37.1689 33.5571 37.0701 33.6 36.9617C33.643 36.8532 33.6638 36.7373 33.6613 36.6206C33.6588 36.504 33.633 36.3891 33.5854 36.2826C33.5378 36.1761 33.4694 36.0802 33.3842 36.0005C28.6498 31.34 22.2684 28.7347 15.625 28.75ZM38.375 30.5C36.5865 30.4988 34.8036 30.7003 33.0605 31.1005C33.6613 31.5562 34.2446 32.036 34.8105 32.5398C35.9888 32.3468 37.1809 32.2499 38.375 32.25C38.6071 32.25 38.8296 32.3422 38.9937 32.5063C39.1578 32.6704 39.25 32.8929 39.25 33.125C39.25 33.3571 39.1578 33.5796 38.9937 33.7437C38.8296 33.9078 38.6071 34 38.375 34C37.7188 34 37.0702 34.0317 36.4227 34.0941C37.0293 34.7263 37.6105 35.3876 38.1661 36.0781C38.2422 36.1673 38.2996 36.2708 38.335 36.3825C38.3703 36.4943 38.3828 36.612 38.3718 36.7287C38.3608 36.8454 38.3264 36.9586 38.2707 37.0618C38.2151 37.1649 38.1393 37.2559 38.0478 37.3292C37.9564 37.4024 37.8511 37.4566 37.7383 37.4884C37.6255 37.5203 37.5074 37.5291 37.3912 37.5144C37.2749 37.4998 37.1627 37.4619 37.0614 37.403C36.96 37.3442 36.8715 37.2656 36.8011 37.1719C34.2649 33.9915 31.0433 31.425 27.3766 29.6637C23.7099 27.9024 19.6928 26.9918 15.625 27C15.3929 27 15.1704 26.9078 15.0063 26.7437C14.8422 26.5796 14.75 26.3571 14.75 26.125C14.75 25.8929 14.8422 25.6704 15.0063 25.5063C15.1704 25.3422 15.3929 25.25 15.625 25.25C17.3859 25.2503 19.143 25.4103 20.875 25.728V21.75C20.875 21.6142 20.9066 21.4802 20.9674 21.3587C21.0281 21.2372 21.1163 21.1315 21.225 21.05L28.225 15.8C28.3765 15.6864 28.5607 15.625 28.75 15.625C28.9393 15.625 29.1235 15.6864 29.275 15.8L36.275 21.05C36.3837 21.1315 36.4719 21.2372 36.5326 21.3587C36.5934 21.4802 36.625 21.6142 36.625 21.75V25.3036C37.2058 25.2697 37.7887 25.25 38.375 25.25C38.6071 25.25 38.8296 25.3422 38.9937 25.5063C39.1578 25.6704 39.25 25.8929 39.25 26.125C39.25 26.3571 39.1578 26.5796 38.9937 26.7437C38.8296 26.9078 38.6071 27 38.375 27C35.2328 26.994 32.1138 27.5378 29.1591 28.6067C29.8474 28.9713 30.5204 29.3643 31.1781 29.7858C33.515 29.0971 35.9388 28.7483 38.375 28.75C38.6071 28.75 38.8296 28.8422 38.9937 29.0063C39.1578 29.1704 39.25 29.3929 39.25 29.625C39.25 29.8571 39.1578 30.0796 38.9937 30.2437C38.8296 30.4078 38.6071 30.5 38.375 30.5ZM26.125 22.625H31.375C31.6071 22.625 31.8296 22.7172 31.9937 22.8813C32.1578 23.0454 32.25 23.2679 32.25 23.5V25.8997C33.1162 25.713 33.9912 25.5672 34.875 25.4622V22.1875L28.75 17.5938L22.625 22.1875V26.1042C23.5139 26.323 24.3889 26.5847 25.25 26.8895V23.5C25.25 23.2679 25.3422 23.0454 25.5063 22.8813C25.6704 22.7172 25.8929 22.625 26.125 22.625ZM27.0077 27.5764C28.1439 27.0886 29.3104 26.6746 30.5 26.3372V24.375H27V27.5731L27.0077 27.5764Z" fill="#556B2F"/>
</svg>
