<svg width="54" height="54" viewBox="0 0 54 54" fill="none" xmlns="http://www.w3.org/2000/svg">
<rect width="54" height="54" rx="27" fill="#E5ECBB" fill-opacity="0.5"/>
<rect x="0.5" y="0.5" width="53" height="53" rx="26.5" stroke="#556B2F" stroke-opacity="0.12"/>
<path d="M21 37C20.45 37 19.9793 36.8043 19.588 36.413C19.1967 36.0217 19.0007 35.5507 19 35V23C19 22.45 19.196 21.9793 19.588 21.588C19.98 21.1967 20.4507 21.0007 21 21H23C23 19.9 23.3917 18.9583 24.175 18.175C24.9583 17.3917 25.9 17 27 17C28.1 17 29.0417 17.3917 29.825 18.175C30.6083 18.9583 31 19.9 31 21H33C33.55 21 34.021 21.196 34.413 21.588C34.805 21.98 35.0007 22.4507 35 23V35C35 35.55 34.8043 36.021 34.413 36.413C34.0217 36.805 33.5507 37.0007 33 37H21ZM25 21H29C29 20.45 28.8043 19.9793 28.413 19.588C28.0217 19.1967 27.5507 19.0007 27 19C26.4493 18.9993 25.9787 19.1953 25.588 19.588C25.1973 19.9807 25.0013 20.4513 25 21ZM30 26C30.2833 26 30.521 25.904 30.713 25.712C30.905 25.52 31.0007 25.2827 31 25V23H29V25C29 25.2833 29.096 25.521 29.288 25.713C29.48 25.905 29.7173 26.0007 30 26ZM24 26C24.2833 26 24.521 25.904 24.713 25.712C24.905 25.52 25.0007 25.2827 25 25V23H23V25C23 25.2833 23.096 25.521 23.288 25.713C23.48 25.905 23.7173 26.0007 24 26Z" fill="#556B2F"/>
</svg>
