<svg width="55" height="54" viewBox="0 0 55 54" fill="none" xmlns="http://www.w3.org/2000/svg">
<rect x="0.333252" width="54" height="54" rx="27" fill="#E5ECBB" fill-opacity="0.5"/>
<rect x="0.833252" y="0.5" width="53" height="53" rx="26.5" stroke="#556B2F" stroke-opacity="0.12"/>
<path d="M28.0403 17.293C27.8527 17.1056 27.5984 17.0002 27.3333 17.0002C27.0681 17.0002 26.8138 17.1056 26.6263 17.293L22.6263 21.293C22.4747 21.4447 22.3758 21.641 22.3443 21.8531C22.3128 22.0652 22.3503 22.2819 22.4513 22.471C22.6983 22.934 23.0843 23.246 23.4613 23.458L20.6263 26.293C20.4388 26.4806 20.3335 26.7349 20.3335 27C20.3335 27.2652 20.4388 27.5195 20.6263 27.707C21.1043 28.185 21.7083 28.477 22.2603 28.659L19.6263 31.293C19.5055 31.4139 19.4178 31.5637 19.3714 31.7281C19.3249 31.8925 19.3214 32.0661 19.3611 32.2322C19.4008 32.3984 19.4825 32.5516 19.5982 32.6772C19.7139 32.8029 19.8599 32.8968 20.0223 32.95C20.7123 33.177 21.4253 33.338 22.1373 33.48C22.9173 33.637 23.8833 33.792 24.9823 33.892L24.3843 35.684C24.3342 35.8344 24.3206 35.9944 24.3445 36.1511C24.3684 36.3077 24.4292 36.4564 24.5219 36.5849C24.6146 36.7135 24.7365 36.8181 24.8776 36.8903C25.0186 36.9625 25.1748 37.0001 25.3333 37H29.3333C29.4917 37.0001 29.6479 36.9625 29.789 36.8903C29.93 36.8181 30.0519 36.7135 30.1446 36.5849C30.2373 36.4564 30.2981 36.3077 30.322 36.1511C30.346 35.9944 30.3323 35.8344 30.2823 35.684L29.6843 33.892C30.7843 33.792 31.7503 33.637 32.5293 33.481C33.2413 33.338 33.9593 33.177 34.6493 32.949C34.811 32.8952 34.9563 32.8008 35.0714 32.675C35.1864 32.5491 35.2674 32.396 35.3065 32.2301C35.3457 32.0641 35.3418 31.8909 35.2952 31.7269C35.2486 31.5629 35.1609 31.4136 35.0403 31.293L32.4063 28.659C32.9583 28.478 33.5623 28.185 34.0403 27.707C34.2277 27.5195 34.3331 27.2652 34.3331 27C34.3331 26.7349 34.2277 26.4806 34.0403 26.293L31.2053 23.458C31.5823 23.246 31.9683 22.934 32.2153 22.471C32.3163 22.2819 32.3538 22.0652 32.3223 21.8531C32.2907 21.641 32.1919 21.4447 32.0403 21.293L28.0403 17.293Z" fill="#556B2F"/>
</svg>
