<svg width="212" height="30" viewBox="0 0 212 30" fill="none" xmlns="http://www.w3.org/2000/svg">
<path d="M16.715 22.5H11.315L5.72 14.64L4.94 15.57V22.5H0.8V1.5H4.94V9.135L11.33 1.5H16.73L8.42 11.4L16.715 22.5ZM24.0406 22.89C22.6606 22.89 21.4006 22.535 20.2606 21.825C19.1306 21.115 18.2256 20.16 17.5456 18.96C16.8756 17.76 16.5406 16.435 16.5406 14.985C16.5406 13.895 16.7356 12.875 17.1256 11.925C17.5156 10.965 18.0506 10.125 18.7306 9.405C19.4206 8.675 20.2206 8.105 21.1306 7.695C22.0406 7.285 23.0106 7.08 24.0406 7.08C25.2306 7.08 26.3156 7.335 27.2956 7.845C28.2856 8.355 29.1206 9.05 29.8006 9.93C30.4906 10.81 30.9806 11.805 31.2706 12.915C31.5706 14.025 31.6206 15.18 31.4206 16.38H21.0106C21.1406 16.82 21.3406 17.22 21.6106 17.58C21.8906 17.93 22.2306 18.21 22.6306 18.42C23.0406 18.63 23.5106 18.74 24.0406 18.75C24.5606 18.76 25.0406 18.64 25.4806 18.39C25.9206 18.14 26.2956 17.805 26.6056 17.385L30.8356 18.36C30.2256 19.69 29.3156 20.78 28.1056 21.63C26.8956 22.47 25.5406 22.89 24.0406 22.89ZM20.8606 13.32H27.2356C27.1056 12.82 26.8856 12.37 26.5756 11.97C26.2656 11.57 25.8906 11.255 25.4506 11.025C25.0206 10.795 24.5506 10.68 24.0406 10.68C23.5406 10.68 23.0706 10.795 22.6306 11.025C22.2006 11.255 21.8306 11.57 21.5206 11.97C21.2206 12.36 21.0006 12.81 20.8606 13.32ZM41.7139 7.08C43.1739 7.08 44.4989 7.435 45.6889 8.145C46.8889 8.855 47.8439 9.81 48.5539 11.01C49.2639 12.2 49.6189 13.52 49.6189 14.97C49.6189 16.06 49.4139 17.085 49.0039 18.045C48.5939 19.005 48.0239 19.85 47.2939 20.58C46.5739 21.3 45.7339 21.865 44.7739 22.275C43.8239 22.685 42.8039 22.89 41.7139 22.89C40.8539 22.89 40.0889 22.7 39.4189 22.32C38.7489 21.94 38.1739 21.46 37.6939 20.88V22.5H33.5539V-1.78814e-06H37.6939V9.09C38.1739 8.5 38.7489 8.02 39.4189 7.65C40.0889 7.27 40.8539 7.08 41.7139 7.08ZM41.6539 18.885C42.3439 18.885 42.9689 18.71 43.5289 18.36C44.0989 18.01 44.5489 17.54 44.8789 16.95C45.2089 16.35 45.3739 15.69 45.3739 14.97C45.3739 14.25 45.2039 13.595 44.8639 13.005C44.5339 12.415 44.0839 11.945 43.5139 11.595C42.9539 11.235 42.3339 11.055 41.6539 11.055C40.9739 11.055 40.3589 11.235 39.8089 11.595C39.2689 11.945 38.8389 12.42 38.5189 13.02C38.2089 13.61 38.0539 14.26 38.0539 14.97C38.0539 15.7 38.2089 16.36 38.5189 16.95C38.8389 17.54 39.2689 18.01 39.8089 18.36C40.3589 18.71 40.9739 18.885 41.6539 18.885ZM50.9422 17.01V7.5H55.0822V15.87C55.0822 16.4 55.2072 16.88 55.4572 17.31C55.7172 17.73 56.0622 18.065 56.4922 18.315C56.9222 18.565 57.3922 18.69 57.9022 18.69C58.4222 18.69 58.8972 18.565 59.3272 18.315C59.7572 18.065 60.0972 17.73 60.3472 17.31C60.5972 16.88 60.7222 16.4 60.7222 15.87V7.5H64.8622L64.8772 22.5H60.7372L60.7222 21.36C60.2222 21.84 59.6322 22.215 58.9522 22.485C58.2822 22.755 57.5722 22.89 56.8222 22.89C55.7422 22.89 54.7572 22.625 53.8672 22.095C52.9772 21.565 52.2672 20.86 51.7372 19.98C51.2072 19.09 50.9422 18.1 50.9422 17.01ZM81.8248 12.96V22.5H77.6848V14.1C77.6848 13.57 77.5548 13.095 77.2948 12.675C77.0448 12.245 76.7048 11.905 76.2748 11.655C75.8548 11.405 75.3848 11.28 74.8648 11.28C74.3448 11.28 73.8698 11.405 73.4398 11.655C73.0098 11.905 72.6698 12.245 72.4198 12.675C72.1698 13.095 72.0448 13.57 72.0448 14.1V22.5H67.9048L67.8898 7.5H72.0298L72.0448 8.61C72.5448 8.13 73.1298 7.755 73.7998 7.485C74.4798 7.215 75.1948 7.08 75.9448 7.08C77.0348 7.08 78.0198 7.345 78.8998 7.875C79.7898 8.405 80.4998 9.115 81.0298 10.005C81.5598 10.885 81.8248 11.87 81.8248 12.96ZM99.2305 22.5L91.6105 1.5H96.0055L101.9 17.715L107.795 1.5H112.175L104.555 22.5H99.2305ZM123.46 7.5H127.6V22.5H123.445L123.25 20.94C122.86 21.52 122.36 21.99 121.75 22.35C121.14 22.71 120.425 22.89 119.605 22.89C118.485 22.89 117.44 22.68 116.47 22.26C115.5 21.84 114.645 21.26 113.905 20.52C113.165 19.78 112.585 18.925 112.165 17.955C111.755 16.975 111.55 15.925 111.55 14.805C111.55 13.735 111.745 12.735 112.135 11.805C112.525 10.875 113.075 10.055 113.785 9.345C114.495 8.635 115.31 8.08 116.23 7.68C117.16 7.28 118.16 7.08 119.23 7.08C120.15 7.08 120.975 7.275 121.705 7.665C122.445 8.055 123.09 8.55 123.64 9.15L123.46 7.5ZM119.5 18.915C120.18 18.915 120.795 18.74 121.345 18.39C121.895 18.04 122.33 17.57 122.65 16.98C122.97 16.38 123.13 15.72 123.13 15C123.13 14.27 122.97 13.61 122.65 13.02C122.33 12.43 121.895 11.96 121.345 11.61C120.795 11.26 120.18 11.085 119.5 11.085C118.81 11.085 118.185 11.26 117.625 11.61C117.065 11.96 116.62 12.435 116.29 13.035C115.96 13.625 115.795 14.28 115.795 15C115.795 15.72 115.96 16.38 116.29 16.98C116.63 17.57 117.08 18.04 117.64 18.39C118.2 18.74 118.82 18.915 119.5 18.915ZM144.549 12.96V22.5H140.409V14.1C140.409 13.57 140.279 13.095 140.019 12.675C139.769 12.245 139.429 11.905 138.999 11.655C138.579 11.405 138.109 11.28 137.589 11.28C137.069 11.28 136.594 11.405 136.164 11.655C135.734 11.905 135.394 12.245 135.144 12.675C134.894 13.095 134.769 13.57 134.769 14.1V22.5H130.629L130.614 7.5H134.754L134.769 8.61C135.269 8.13 135.854 7.755 136.524 7.485C137.204 7.215 137.919 7.08 138.669 7.08C139.759 7.08 140.744 7.345 141.624 7.875C142.514 8.405 143.224 9.115 143.754 10.005C144.284 10.885 144.549 11.87 144.549 12.96ZM158.28 -1.78814e-06H162.42V22.5H158.28V20.91C157.82 21.49 157.25 21.965 156.57 22.335C155.89 22.705 155.115 22.89 154.245 22.89C153.155 22.89 152.135 22.685 151.185 22.275C150.235 21.865 149.395 21.3 148.665 20.58C147.945 19.85 147.38 19.01 146.97 18.06C146.56 17.11 146.355 16.09 146.355 15C146.355 13.91 146.56 12.89 146.97 11.94C147.38 10.99 147.945 10.155 148.665 9.435C149.395 8.705 150.235 8.135 151.185 7.725C152.135 7.315 153.155 7.11 154.245 7.11C155.115 7.11 155.89 7.295 156.57 7.665C157.25 8.025 157.82 8.5 158.28 9.09V-1.78814e-06ZM154.305 18.915C154.985 18.915 155.6 18.74 156.15 18.39C156.7 18.04 157.135 17.57 157.455 16.98C157.775 16.38 157.935 15.72 157.935 15C157.935 14.27 157.775 13.61 157.455 13.02C157.135 12.43 156.7 11.96 156.15 11.61C155.6 11.26 154.985 11.085 154.305 11.085C153.615 11.085 152.99 11.26 152.43 11.61C151.87 11.96 151.425 12.435 151.095 13.035C150.765 13.625 150.6 14.28 150.6 15C150.6 15.72 150.765 16.38 151.095 16.98C151.435 17.57 151.885 18.04 152.445 18.39C153.005 18.74 153.625 18.915 154.305 18.915ZM172.341 22.89C170.961 22.89 169.701 22.535 168.561 21.825C167.431 21.115 166.526 20.165 165.846 18.975C165.176 17.775 164.841 16.45 164.841 15C164.841 13.9 165.036 12.875 165.426 11.925C165.816 10.965 166.351 10.125 167.031 9.405C167.721 8.675 168.521 8.105 169.431 7.695C170.341 7.285 171.311 7.08 172.341 7.08C173.721 7.08 174.976 7.435 176.106 8.145C177.246 8.855 178.151 9.81 178.821 11.01C179.501 12.21 179.841 13.54 179.841 15C179.841 16.09 179.646 17.11 179.256 18.06C178.866 19.01 178.326 19.85 177.636 20.58C176.956 21.3 176.161 21.865 175.251 22.275C174.351 22.685 173.381 22.89 172.341 22.89ZM172.341 18.75C172.981 18.75 173.556 18.58 174.066 18.24C174.576 17.89 174.976 17.43 175.266 16.86C175.556 16.29 175.701 15.67 175.701 15C175.701 14.31 175.546 13.68 175.236 13.11C174.936 12.53 174.531 12.07 174.021 11.73C173.511 11.39 172.951 11.22 172.341 11.22C171.711 11.22 171.141 11.395 170.631 11.745C170.121 12.095 169.716 12.555 169.416 13.125C169.126 13.695 168.981 14.32 168.981 15C168.981 15.71 169.131 16.35 169.431 16.92C169.741 17.48 170.151 17.925 170.661 18.255C171.171 18.585 171.731 18.75 172.341 18.75ZM191.412 7.5H195.822L187.602 30H183.222L185.922 22.5L180.522 7.5H185.052L187.992 16.845L191.412 7.5ZM203.748 22.89C202.368 22.89 201.108 22.535 199.968 21.825C198.838 21.115 197.933 20.165 197.253 18.975C196.583 17.775 196.248 16.45 196.248 15C196.248 13.9 196.443 12.875 196.833 11.925C197.223 10.965 197.758 10.125 198.438 9.405C199.128 8.675 199.928 8.105 200.838 7.695C201.748 7.285 202.718 7.08 203.748 7.08C205.128 7.08 206.383 7.435 207.513 8.145C208.653 8.855 209.558 9.81 210.228 11.01C210.908 12.21 211.248 13.54 211.248 15C211.248 16.09 211.053 17.11 210.663 18.06C210.273 19.01 209.733 19.85 209.043 20.58C208.363 21.3 207.568 21.865 206.658 22.275C205.758 22.685 204.788 22.89 203.748 22.89ZM203.748 18.75C204.388 18.75 204.963 18.58 205.473 18.24C205.983 17.89 206.383 17.43 206.673 16.86C206.963 16.29 207.108 15.67 207.108 15C207.108 14.31 206.953 13.68 206.643 13.11C206.343 12.53 205.938 12.07 205.428 11.73C204.918 11.39 204.358 11.22 203.748 11.22C203.118 11.22 202.548 11.395 202.038 11.745C201.528 12.095 201.123 12.555 200.823 13.125C200.533 13.695 200.388 14.32 200.388 15C200.388 15.71 200.538 16.35 200.838 16.92C201.148 17.48 201.558 17.925 202.068 18.255C202.578 18.585 203.138 18.75 203.748 18.75Z" fill="#02001E"/>
</svg>
