<svg width="270" height="40" viewBox="0 0 270 40" fill="none" xmlns="http://www.w3.org/2000/svg">
<path d="M21.3797 34.4422C21.1961 34.7181 20.9104 34.9099 20.5854 34.9752C20.2605 35.0405 19.9229 34.9742 19.6469 34.7906C14.9378 31.6579 9.40594 29.9908 3.75 30C3.41848 30 3.10054 29.8683 2.86612 29.6339C2.6317 29.3995 2.5 29.0815 2.5 28.75C2.5 28.4185 2.6317 28.1005 2.86612 27.8661C3.10054 27.6317 3.41848 27.5 3.75 27.5C9.89865 27.4905 15.9122 29.3033 21.0312 32.7094C21.3072 32.893 21.4989 33.1787 21.5643 33.5036C21.6296 33.8286 21.5632 34.1662 21.3797 34.4422ZM3.75 22.5C3.41848 22.5 3.10054 22.6317 2.86612 22.8661C2.6317 23.1005 2.5 23.4185 2.5 23.75C2.5 24.0815 2.6317 24.3995 2.86612 24.6339C3.10054 24.8683 3.41848 25 3.75 25C12.5857 24.9796 21.073 28.4443 27.3703 34.6422C27.4865 34.7617 27.6254 34.8567 27.7788 34.9217C27.9323 34.9867 28.0972 35.0204 28.2638 35.0207C28.4304 35.0211 28.5955 34.9881 28.7492 34.9237C28.9029 34.8594 29.0422 34.7649 29.1589 34.646C29.2756 34.527 29.3673 34.3859 29.4286 34.231C29.49 34.076 29.5198 33.9104 29.5162 33.7438C29.5126 33.5772 29.4757 33.413 29.4077 33.2608C29.3397 33.1087 29.242 32.9716 29.1203 32.8578C22.3568 26.2 13.2406 22.4782 3.75 22.5ZM36.25 25C33.695 24.9983 31.148 25.2861 28.6578 25.8578C29.5161 26.5089 30.3495 27.1943 31.1578 27.9141C32.8412 27.6383 34.5442 27.4998 36.25 27.5C36.5815 27.5 36.8995 27.6317 37.1339 27.8661C37.3683 28.1005 37.5 28.4185 37.5 28.75C37.5 29.0815 37.3683 29.3995 37.1339 29.6339C36.8995 29.8683 36.5815 30 36.25 30C35.3125 30 34.3859 30.0453 33.4609 30.1344C34.3276 31.0375 35.1578 31.9823 35.9516 32.9687C36.0603 33.0961 36.1423 33.244 36.1928 33.4036C36.2433 33.5633 36.2612 33.7314 36.2454 33.8981C36.2297 34.0648 36.1806 34.2266 36.1011 34.374C36.0216 34.5213 35.9133 34.6512 35.7826 34.7559C35.6519 34.8606 35.5016 34.938 35.3404 34.9835C35.1793 35.029 35.0106 35.0416 34.8445 35.0206C34.6784 34.9997 34.5182 34.9456 34.3734 34.8615C34.2286 34.7774 34.1021 34.6651 34.0016 34.5312C30.3784 29.9879 25.7761 26.3214 20.538 23.8052C15.2998 21.2891 9.56111 19.9883 3.75 20C3.41848 20 3.10054 19.8683 2.86612 19.6339C2.6317 19.3995 2.5 19.0815 2.5 18.75C2.5 18.4185 2.6317 18.1005 2.86612 17.8661C3.10054 17.6317 3.41848 17.5 3.75 17.5C6.2655 17.5004 8.77578 17.729 11.25 18.1828V12.5C11.25 12.3059 11.2952 12.1146 11.382 11.941C11.4688 11.7674 11.5948 11.6164 11.75 11.5L21.75 4C21.9664 3.83772 22.2295 3.75 22.5 3.75C22.7705 3.75 23.0336 3.83772 23.25 4L33.25 11.5C33.4052 11.6164 33.5312 11.7674 33.618 11.941C33.7048 12.1146 33.75 12.3059 33.75 12.5V17.5766C34.5797 17.5281 35.4125 17.5 36.25 17.5C36.5815 17.5 36.8995 17.6317 37.1339 17.8661C37.3683 18.1005 37.5 18.4185 37.5 18.75C37.5 19.0815 37.3683 19.3995 37.1339 19.6339C36.8995 19.8683 36.5815 20 36.25 20C31.7612 19.9914 27.3055 20.7682 23.0844 22.2953C24.0677 22.8161 25.0292 23.3776 25.9688 23.9797C29.3071 22.9959 32.7697 22.4976 36.25 22.5C36.5815 22.5 36.8995 22.6317 37.1339 22.8661C37.3683 23.1005 37.5 23.4185 37.5 23.75C37.5 24.0815 37.3683 24.3995 37.1339 24.6339C36.8995 24.8683 36.5815 25 36.25 25ZM18.75 13.75H26.25C26.5815 13.75 26.8995 13.8817 27.1339 14.1161C27.3683 14.3505 27.5 14.6685 27.5 15V18.4281C28.7375 18.1615 29.9875 17.9531 31.25 17.8031V13.125L22.5 6.5625L13.75 13.125V18.7203C15.0198 19.0328 16.2698 19.4068 17.5 19.8422V15C17.5 14.6685 17.6317 14.3505 17.8661 14.1161C18.1005 13.8817 18.4185 13.75 18.75 13.75ZM20.0109 20.8234C21.6341 20.1265 23.3006 19.5352 25 19.0531V16.25H20V20.8187L20.0109 20.8234Z" fill="#FEFEFE"/>
<path d="M72.715 31H67.315L61.72 23.14L60.94 24.07V31H56.8V10H60.94V17.635L67.33 10H72.73L64.42 19.9L72.715 31ZM80.0406 31.39C78.6606 31.39 77.4006 31.035 76.2606 30.325C75.1306 29.615 74.2256 28.66 73.5456 27.46C72.8756 26.26 72.5406 24.935 72.5406 23.485C72.5406 22.395 72.7356 21.375 73.1256 20.425C73.5156 19.465 74.0506 18.625 74.7306 17.905C75.4206 17.175 76.2206 16.605 77.1306 16.195C78.0406 15.785 79.0106 15.58 80.0406 15.58C81.2306 15.58 82.3156 15.835 83.2956 16.345C84.2856 16.855 85.1206 17.55 85.8006 18.43C86.4906 19.31 86.9806 20.305 87.2706 21.415C87.5706 22.525 87.6206 23.68 87.4206 24.88H77.0106C77.1406 25.32 77.3406 25.72 77.6106 26.08C77.8906 26.43 78.2306 26.71 78.6306 26.92C79.0406 27.13 79.5106 27.24 80.0406 27.25C80.5606 27.26 81.0406 27.14 81.4806 26.89C81.9206 26.64 82.2956 26.305 82.6056 25.885L86.8356 26.86C86.2256 28.19 85.3156 29.28 84.1056 30.13C82.8956 30.97 81.5406 31.39 80.0406 31.39ZM76.8606 21.82H83.2356C83.1056 21.32 82.8856 20.87 82.5756 20.47C82.2656 20.07 81.8906 19.755 81.4506 19.525C81.0206 19.295 80.5506 19.18 80.0406 19.18C79.5406 19.18 79.0706 19.295 78.6306 19.525C78.2006 19.755 77.8306 20.07 77.5206 20.47C77.2206 20.86 77.0006 21.31 76.8606 21.82ZM97.7139 15.58C99.1739 15.58 100.499 15.935 101.689 16.645C102.889 17.355 103.844 18.31 104.554 19.51C105.264 20.7 105.619 22.02 105.619 23.47C105.619 24.56 105.414 25.585 105.004 26.545C104.594 27.505 104.024 28.35 103.294 29.08C102.574 29.8 101.734 30.365 100.774 30.775C99.8239 31.185 98.8039 31.39 97.7139 31.39C96.8539 31.39 96.0889 31.2 95.4189 30.82C94.7489 30.44 94.1739 29.96 93.6939 29.38V31H89.5539V8.5H93.6939V17.59C94.1739 17 94.7489 16.52 95.4189 16.15C96.0889 15.77 96.8539 15.58 97.7139 15.58ZM97.6539 27.385C98.3439 27.385 98.9689 27.21 99.5289 26.86C100.099 26.51 100.549 26.04 100.879 25.45C101.209 24.85 101.374 24.19 101.374 23.47C101.374 22.75 101.204 22.095 100.864 21.505C100.534 20.915 100.084 20.445 99.5139 20.095C98.9539 19.735 98.3339 19.555 97.6539 19.555C96.9739 19.555 96.3589 19.735 95.8089 20.095C95.2689 20.445 94.8389 20.92 94.5189 21.52C94.2089 22.11 94.0539 22.76 94.0539 23.47C94.0539 24.2 94.2089 24.86 94.5189 25.45C94.8389 26.04 95.2689 26.51 95.8089 26.86C96.3589 27.21 96.9739 27.385 97.6539 27.385ZM106.942 25.51V16H111.082V24.37C111.082 24.9 111.207 25.38 111.457 25.81C111.717 26.23 112.062 26.565 112.492 26.815C112.922 27.065 113.392 27.19 113.902 27.19C114.422 27.19 114.897 27.065 115.327 26.815C115.757 26.565 116.097 26.23 116.347 25.81C116.597 25.38 116.722 24.9 116.722 24.37V16H120.862L120.877 31H116.737L116.722 29.86C116.222 30.34 115.632 30.715 114.952 30.985C114.282 31.255 113.572 31.39 112.822 31.39C111.742 31.39 110.757 31.125 109.867 30.595C108.977 30.065 108.267 29.36 107.737 28.48C107.207 27.59 106.942 26.6 106.942 25.51ZM137.825 21.46V31H133.685V22.6C133.685 22.07 133.555 21.595 133.295 21.175C133.045 20.745 132.705 20.405 132.275 20.155C131.855 19.905 131.385 19.78 130.865 19.78C130.345 19.78 129.87 19.905 129.44 20.155C129.01 20.405 128.67 20.745 128.42 21.175C128.17 21.595 128.045 22.07 128.045 22.6V31H123.905L123.89 16H128.03L128.045 17.11C128.545 16.63 129.13 16.255 129.8 15.985C130.48 15.715 131.195 15.58 131.945 15.58C133.035 15.58 134.02 15.845 134.9 16.375C135.79 16.905 136.5 17.615 137.03 18.505C137.56 19.385 137.825 20.37 137.825 21.46ZM155.23 31L147.61 10H152.005L157.9 26.215L163.795 10H168.175L160.555 31H155.23ZM179.46 16H183.6V31H179.445L179.25 29.44C178.86 30.02 178.36 30.49 177.75 30.85C177.14 31.21 176.425 31.39 175.605 31.39C174.485 31.39 173.44 31.18 172.47 30.76C171.5 30.34 170.645 29.76 169.905 29.02C169.165 28.28 168.585 27.425 168.165 26.455C167.755 25.475 167.55 24.425 167.55 23.305C167.55 22.235 167.745 21.235 168.135 20.305C168.525 19.375 169.075 18.555 169.785 17.845C170.495 17.135 171.31 16.58 172.23 16.18C173.16 15.78 174.16 15.58 175.23 15.58C176.15 15.58 176.975 15.775 177.705 16.165C178.445 16.555 179.09 17.05 179.64 17.65L179.46 16ZM175.5 27.415C176.18 27.415 176.795 27.24 177.345 26.89C177.895 26.54 178.33 26.07 178.65 25.48C178.97 24.88 179.13 24.22 179.13 23.5C179.13 22.77 178.97 22.11 178.65 21.52C178.33 20.93 177.895 20.46 177.345 20.11C176.795 19.76 176.18 19.585 175.5 19.585C174.81 19.585 174.185 19.76 173.625 20.11C173.065 20.46 172.62 20.935 172.29 21.535C171.96 22.125 171.795 22.78 171.795 23.5C171.795 24.22 171.96 24.88 172.29 25.48C172.63 26.07 173.08 26.54 173.64 26.89C174.2 27.24 174.82 27.415 175.5 27.415ZM200.549 21.46V31H196.409V22.6C196.409 22.07 196.279 21.595 196.019 21.175C195.769 20.745 195.429 20.405 194.999 20.155C194.579 19.905 194.109 19.78 193.589 19.78C193.069 19.78 192.594 19.905 192.164 20.155C191.734 20.405 191.394 20.745 191.144 21.175C190.894 21.595 190.769 22.07 190.769 22.6V31H186.629L186.614 16H190.754L190.769 17.11C191.269 16.63 191.854 16.255 192.524 15.985C193.204 15.715 193.919 15.58 194.669 15.58C195.759 15.58 196.744 15.845 197.624 16.375C198.514 16.905 199.224 17.615 199.754 18.505C200.284 19.385 200.549 20.37 200.549 21.46ZM203.577 31V10H210.537C211.987 10 213.342 10.275 214.602 10.825C215.872 11.365 216.987 12.12 217.947 13.09C218.917 14.05 219.672 15.165 220.212 16.435C220.762 17.695 221.037 19.05 221.037 20.5C221.037 21.95 220.762 23.31 220.212 24.58C219.672 25.84 218.917 26.955 217.947 27.925C216.987 28.885 215.872 29.64 214.602 30.19C213.342 30.73 211.987 31 210.537 31H203.577ZM207.717 26.86H210.537C211.397 26.86 212.207 26.695 212.967 26.365C213.737 26.035 214.417 25.58 215.007 25C215.597 24.42 216.057 23.745 216.387 22.975C216.727 22.205 216.897 21.38 216.897 20.5C216.897 19.62 216.727 18.8 216.387 18.04C216.057 17.27 215.597 16.595 215.007 16.015C214.427 15.425 213.752 14.965 212.982 14.635C212.222 14.305 211.407 14.14 210.537 14.14H207.717V26.86ZM229.777 31.39C228.397 31.39 227.137 31.035 225.997 30.325C224.867 29.615 223.962 28.665 223.282 27.475C222.612 26.275 222.277 24.95 222.277 23.5C222.277 22.4 222.472 21.375 222.862 20.425C223.252 19.465 223.787 18.625 224.467 17.905C225.157 17.175 225.957 16.605 226.867 16.195C227.777 15.785 228.747 15.58 229.777 15.58C231.157 15.58 232.412 15.935 233.542 16.645C234.682 17.355 235.587 18.31 236.257 19.51C236.937 20.71 237.277 22.04 237.277 23.5C237.277 24.59 237.082 25.61 236.692 26.56C236.302 27.51 235.762 28.35 235.072 29.08C234.392 29.8 233.597 30.365 232.687 30.775C231.787 31.185 230.817 31.39 229.777 31.39ZM229.777 27.25C230.417 27.25 230.992 27.08 231.502 26.74C232.012 26.39 232.412 25.93 232.702 25.36C232.992 24.79 233.137 24.17 233.137 23.5C233.137 22.81 232.982 22.18 232.672 21.61C232.372 21.03 231.967 20.57 231.457 20.23C230.947 19.89 230.387 19.72 229.777 19.72C229.147 19.72 228.577 19.895 228.067 20.245C227.557 20.595 227.152 21.055 226.852 21.625C226.562 22.195 226.417 22.82 226.417 23.5C226.417 24.21 226.567 24.85 226.867 25.42C227.177 25.98 227.587 26.425 228.097 26.755C228.607 27.085 229.167 27.25 229.777 27.25ZM248.848 16H253.258L245.038 38.5H240.658L243.358 31L237.958 16H242.488L245.428 25.345L248.848 16ZM261.183 31.39C259.803 31.39 258.543 31.035 257.403 30.325C256.273 29.615 255.368 28.665 254.688 27.475C254.018 26.275 253.683 24.95 253.683 23.5C253.683 22.4 253.878 21.375 254.268 20.425C254.658 19.465 255.193 18.625 255.873 17.905C256.563 17.175 257.363 16.605 258.273 16.195C259.183 15.785 260.153 15.58 261.183 15.58C262.563 15.58 263.818 15.935 264.948 16.645C266.088 17.355 266.993 18.31 267.663 19.51C268.343 20.71 268.683 22.04 268.683 23.5C268.683 24.59 268.488 25.61 268.098 26.56C267.708 27.51 267.168 28.35 266.478 29.08C265.798 29.8 265.003 30.365 264.093 30.775C263.193 31.185 262.223 31.39 261.183 31.39ZM261.183 27.25C261.823 27.25 262.398 27.08 262.908 26.74C263.418 26.39 263.818 25.93 264.108 25.36C264.398 24.79 264.543 24.17 264.543 23.5C264.543 22.81 264.388 22.18 264.078 21.61C263.778 21.03 263.373 20.57 262.863 20.23C262.353 19.89 261.793 19.72 261.183 19.72C260.553 19.72 259.983 19.895 259.473 20.245C258.963 20.595 258.558 21.055 258.258 21.625C257.968 22.195 257.823 22.82 257.823 23.5C257.823 24.21 257.973 24.85 258.273 25.42C258.583 25.98 258.993 26.425 259.503 26.755C260.013 27.085 260.573 27.25 261.183 27.25Z" fill="#FEFEFE"/>
</svg>
