<svg width="269" height="41" viewBox="0 0 269 41" fill="none" xmlns="http://www.w3.org/2000/svg">
<path d="M21.3797 34.9422C21.1961 35.2181 20.9104 35.4099 20.5854 35.4752C20.2605 35.5405 19.9229 35.4742 19.6469 35.2906C14.9378 32.1579 9.40594 30.4908 3.75 30.5C3.41848 30.5 3.10054 30.3683 2.86612 30.1339C2.6317 29.8995 2.5 29.5815 2.5 29.25C2.5 28.9185 2.6317 28.6005 2.86612 28.3661C3.10054 28.1317 3.41848 28 3.75 28C9.89865 27.9905 15.9122 29.8033 21.0312 33.2094C21.3072 33.393 21.4989 33.6787 21.5643 34.0036C21.6296 34.3286 21.5632 34.6662 21.3797 34.9422ZM3.75 23C3.41848 23 3.10054 23.1317 2.86612 23.3661C2.6317 23.6005 2.5 23.9185 2.5 24.25C2.5 24.5815 2.6317 24.8995 2.86612 25.1339C3.10054 25.3683 3.41848 25.5 3.75 25.5C12.5857 25.4796 21.073 28.9443 27.3703 35.1422C27.4865 35.2617 27.6254 35.3567 27.7788 35.4217C27.9323 35.4867 28.0972 35.5204 28.2638 35.5207C28.4304 35.5211 28.5955 35.4881 28.7492 35.4237C28.9029 35.3594 29.0422 35.2649 29.1589 35.146C29.2756 35.027 29.3673 34.8859 29.4286 34.731C29.49 34.576 29.5198 34.4104 29.5162 34.2438C29.5126 34.0772 29.4757 33.913 29.4077 33.7608C29.3397 33.6087 29.242 33.4716 29.1203 33.3578C22.3568 26.7 13.2406 22.9782 3.75 23ZM36.25 25.5C33.695 25.4983 31.148 25.7861 28.6578 26.3578C29.5161 27.0089 30.3495 27.6943 31.1578 28.4141C32.8412 28.1383 34.5442 27.9998 36.25 28C36.5815 28 36.8995 28.1317 37.1339 28.3661C37.3683 28.6005 37.5 28.9185 37.5 29.25C37.5 29.5815 37.3683 29.8995 37.1339 30.1339C36.8995 30.3683 36.5815 30.5 36.25 30.5C35.3125 30.5 34.3859 30.5453 33.4609 30.6344C34.3276 31.5375 35.1578 32.4823 35.9516 33.4687C36.0603 33.5961 36.1423 33.744 36.1928 33.9036C36.2433 34.0633 36.2612 34.2314 36.2454 34.3981C36.2297 34.5648 36.1806 34.7266 36.1011 34.874C36.0216 35.0213 35.9133 35.1512 35.7826 35.2559C35.6519 35.3606 35.5016 35.438 35.3404 35.4835C35.1793 35.529 35.0106 35.5416 34.8445 35.5206C34.6784 35.4997 34.5182 35.4456 34.3734 35.3615C34.2286 35.2774 34.1021 35.1651 34.0016 35.0312C30.3784 30.4879 25.7761 26.8214 20.538 24.3052C15.2998 21.7891 9.56111 20.4883 3.75 20.5C3.41848 20.5 3.10054 20.3683 2.86612 20.1339C2.6317 19.8995 2.5 19.5815 2.5 19.25C2.5 18.9185 2.6317 18.6005 2.86612 18.3661C3.10054 18.1317 3.41848 18 3.75 18C6.2655 18.0004 8.77578 18.229 11.25 18.6828V13C11.25 12.8059 11.2952 12.6146 11.382 12.441C11.4688 12.2674 11.5948 12.1164 11.75 12L21.75 4.5C21.9664 4.33772 22.2295 4.25 22.5 4.25C22.7705 4.25 23.0336 4.33772 23.25 4.5L33.25 12C33.4052 12.1164 33.5312 12.2674 33.618 12.441C33.7048 12.6146 33.75 12.8059 33.75 13V18.0766C34.5797 18.0281 35.4125 18 36.25 18C36.5815 18 36.8995 18.1317 37.1339 18.3661C37.3683 18.6005 37.5 18.9185 37.5 19.25C37.5 19.5815 37.3683 19.8995 37.1339 20.1339C36.8995 20.3683 36.5815 20.5 36.25 20.5C31.7612 20.4914 27.3055 21.2682 23.0844 22.7953C24.0677 23.3161 25.0292 23.8776 25.9688 24.4797C29.3071 23.4959 32.7697 22.9976 36.25 23C36.5815 23 36.8995 23.1317 37.1339 23.3661C37.3683 23.6005 37.5 23.9185 37.5 24.25C37.5 24.5815 37.3683 24.8995 37.1339 25.1339C36.8995 25.3683 36.5815 25.5 36.25 25.5ZM18.75 14.25H26.25C26.5815 14.25 26.8995 14.3817 27.1339 14.6161C27.3683 14.8505 27.5 15.1685 27.5 15.5V18.9281C28.7375 18.6615 29.9875 18.4531 31.25 18.3031V13.625L22.5 7.0625L13.75 13.625V19.2203C15.0198 19.5328 16.2698 19.9068 17.5 20.3422V15.5C17.5 15.1685 17.6317 14.8505 17.8661 14.6161C18.1005 14.3817 18.4185 14.25 18.75 14.25ZM20.0109 21.3234C21.6341 20.6265 23.3006 20.0352 25 19.5531V16.75H20V21.3187L20.0109 21.3234Z" fill="#8FA31E"/>
<path d="M72.715 31.5H67.315L61.72 23.64L60.94 24.57V31.5H56.8V10.5H60.94V18.135L67.33 10.5H72.73L64.42 20.4L72.715 31.5ZM80.0406 31.89C78.6606 31.89 77.4006 31.535 76.2606 30.825C75.1306 30.115 74.2256 29.16 73.5456 27.96C72.8756 26.76 72.5406 25.435 72.5406 23.985C72.5406 22.895 72.7356 21.875 73.1256 20.925C73.5156 19.965 74.0506 19.125 74.7306 18.405C75.4206 17.675 76.2206 17.105 77.1306 16.695C78.0406 16.285 79.0106 16.08 80.0406 16.08C81.2306 16.08 82.3156 16.335 83.2956 16.845C84.2856 17.355 85.1206 18.05 85.8006 18.93C86.4906 19.81 86.9806 20.805 87.2706 21.915C87.5706 23.025 87.6206 24.18 87.4206 25.38H77.0106C77.1406 25.82 77.3406 26.22 77.6106 26.58C77.8906 26.93 78.2306 27.21 78.6306 27.42C79.0406 27.63 79.5106 27.74 80.0406 27.75C80.5606 27.76 81.0406 27.64 81.4806 27.39C81.9206 27.14 82.2956 26.805 82.6056 26.385L86.8356 27.36C86.2256 28.69 85.3156 29.78 84.1056 30.63C82.8956 31.47 81.5406 31.89 80.0406 31.89ZM76.8606 22.32H83.2356C83.1056 21.82 82.8856 21.37 82.5756 20.97C82.2656 20.57 81.8906 20.255 81.4506 20.025C81.0206 19.795 80.5506 19.68 80.0406 19.68C79.5406 19.68 79.0706 19.795 78.6306 20.025C78.2006 20.255 77.8306 20.57 77.5206 20.97C77.2206 21.36 77.0006 21.81 76.8606 22.32ZM97.7139 16.08C99.1739 16.08 100.499 16.435 101.689 17.145C102.889 17.855 103.844 18.81 104.554 20.01C105.264 21.2 105.619 22.52 105.619 23.97C105.619 25.06 105.414 26.085 105.004 27.045C104.594 28.005 104.024 28.85 103.294 29.58C102.574 30.3 101.734 30.865 100.774 31.275C99.8239 31.685 98.8039 31.89 97.7139 31.89C96.8539 31.89 96.0889 31.7 95.4189 31.32C94.7489 30.94 94.1739 30.46 93.6939 29.88V31.5H89.5539V9H93.6939V18.09C94.1739 17.5 94.7489 17.02 95.4189 16.65C96.0889 16.27 96.8539 16.08 97.7139 16.08ZM97.6539 27.885C98.3439 27.885 98.9689 27.71 99.5289 27.36C100.099 27.01 100.549 26.54 100.879 25.95C101.209 25.35 101.374 24.69 101.374 23.97C101.374 23.25 101.204 22.595 100.864 22.005C100.534 21.415 100.084 20.945 99.5139 20.595C98.9539 20.235 98.3339 20.055 97.6539 20.055C96.9739 20.055 96.3589 20.235 95.8089 20.595C95.2689 20.945 94.8389 21.42 94.5189 22.02C94.2089 22.61 94.0539 23.26 94.0539 23.97C94.0539 24.7 94.2089 25.36 94.5189 25.95C94.8389 26.54 95.2689 27.01 95.8089 27.36C96.3589 27.71 96.9739 27.885 97.6539 27.885ZM106.942 26.01V16.5H111.082V24.87C111.082 25.4 111.207 25.88 111.457 26.31C111.717 26.73 112.062 27.065 112.492 27.315C112.922 27.565 113.392 27.69 113.902 27.69C114.422 27.69 114.897 27.565 115.327 27.315C115.757 27.065 116.097 26.73 116.347 26.31C116.597 25.88 116.722 25.4 116.722 24.87V16.5H120.862L120.877 31.5H116.737L116.722 30.36C116.222 30.84 115.632 31.215 114.952 31.485C114.282 31.755 113.572 31.89 112.822 31.89C111.742 31.89 110.757 31.625 109.867 31.095C108.977 30.565 108.267 29.86 107.737 28.98C107.207 28.09 106.942 27.1 106.942 26.01ZM137.825 21.96V31.5H133.685V23.1C133.685 22.57 133.555 22.095 133.295 21.675C133.045 21.245 132.705 20.905 132.275 20.655C131.855 20.405 131.385 20.28 130.865 20.28C130.345 20.28 129.87 20.405 129.44 20.655C129.01 20.905 128.67 21.245 128.42 21.675C128.17 22.095 128.045 22.57 128.045 23.1V31.5H123.905L123.89 16.5H128.03L128.045 17.61C128.545 17.13 129.13 16.755 129.8 16.485C130.48 16.215 131.195 16.08 131.945 16.08C133.035 16.08 134.02 16.345 134.9 16.875C135.79 17.405 136.5 18.115 137.03 19.005C137.56 19.885 137.825 20.87 137.825 21.96ZM155.23 31.5L147.61 10.5H152.005L157.9 26.715L163.795 10.5H168.175L160.555 31.5H155.23ZM179.46 16.5H183.6V31.5H179.445L179.25 29.94C178.86 30.52 178.36 30.99 177.75 31.35C177.14 31.71 176.425 31.89 175.605 31.89C174.485 31.89 173.44 31.68 172.47 31.26C171.5 30.84 170.645 30.26 169.905 29.52C169.165 28.78 168.585 27.925 168.165 26.955C167.755 25.975 167.55 24.925 167.55 23.805C167.55 22.735 167.745 21.735 168.135 20.805C168.525 19.875 169.075 19.055 169.785 18.345C170.495 17.635 171.31 17.08 172.23 16.68C173.16 16.28 174.16 16.08 175.23 16.08C176.15 16.08 176.975 16.275 177.705 16.665C178.445 17.055 179.09 17.55 179.64 18.15L179.46 16.5ZM175.5 27.915C176.18 27.915 176.795 27.74 177.345 27.39C177.895 27.04 178.33 26.57 178.65 25.98C178.97 25.38 179.13 24.72 179.13 24C179.13 23.27 178.97 22.61 178.65 22.02C178.33 21.43 177.895 20.96 177.345 20.61C176.795 20.26 176.18 20.085 175.5 20.085C174.81 20.085 174.185 20.26 173.625 20.61C173.065 20.96 172.62 21.435 172.29 22.035C171.96 22.625 171.795 23.28 171.795 24C171.795 24.72 171.96 25.38 172.29 25.98C172.63 26.57 173.08 27.04 173.64 27.39C174.2 27.74 174.82 27.915 175.5 27.915ZM200.549 21.96V31.5H196.409V23.1C196.409 22.57 196.279 22.095 196.019 21.675C195.769 21.245 195.429 20.905 194.999 20.655C194.579 20.405 194.109 20.28 193.589 20.28C193.069 20.28 192.594 20.405 192.164 20.655C191.734 20.905 191.394 21.245 191.144 21.675C190.894 22.095 190.769 22.57 190.769 23.1V31.5H186.629L186.614 16.5H190.754L190.769 17.61C191.269 17.13 191.854 16.755 192.524 16.485C193.204 16.215 193.919 16.08 194.669 16.08C195.759 16.08 196.744 16.345 197.624 16.875C198.514 17.405 199.224 18.115 199.754 19.005C200.284 19.885 200.549 20.87 200.549 21.96ZM214.28 9H218.42V31.5H214.28V29.91C213.82 30.49 213.25 30.965 212.57 31.335C211.89 31.705 211.115 31.89 210.245 31.89C209.155 31.89 208.135 31.685 207.185 31.275C206.235 30.865 205.395 30.3 204.665 29.58C203.945 28.85 203.38 28.01 202.97 27.06C202.56 26.11 202.355 25.09 202.355 24C202.355 22.91 202.56 21.89 202.97 20.94C203.38 19.99 203.945 19.155 204.665 18.435C205.395 17.705 206.235 17.135 207.185 16.725C208.135 16.315 209.155 16.11 210.245 16.11C211.115 16.11 211.89 16.295 212.57 16.665C213.25 17.025 213.82 17.5 214.28 18.09V9ZM210.305 27.915C210.985 27.915 211.6 27.74 212.15 27.39C212.7 27.04 213.135 26.57 213.455 25.98C213.775 25.38 213.935 24.72 213.935 24C213.935 23.27 213.775 22.61 213.455 22.02C213.135 21.43 212.7 20.96 212.15 20.61C211.6 20.26 210.985 20.085 210.305 20.085C209.615 20.085 208.99 20.26 208.43 20.61C207.87 20.96 207.425 21.435 207.095 22.035C206.765 22.625 206.6 23.28 206.6 24C206.6 24.72 206.765 25.38 207.095 25.98C207.435 26.57 207.885 27.04 208.445 27.39C209.005 27.74 209.625 27.915 210.305 27.915ZM228.341 31.89C226.961 31.89 225.701 31.535 224.561 30.825C223.431 30.115 222.526 29.165 221.846 27.975C221.176 26.775 220.841 25.45 220.841 24C220.841 22.9 221.036 21.875 221.426 20.925C221.816 19.965 222.351 19.125 223.031 18.405C223.721 17.675 224.521 17.105 225.431 16.695C226.341 16.285 227.311 16.08 228.341 16.08C229.721 16.08 230.976 16.435 232.106 17.145C233.246 17.855 234.151 18.81 234.821 20.01C235.501 21.21 235.841 22.54 235.841 24C235.841 25.09 235.646 26.11 235.256 27.06C234.866 28.01 234.326 28.85 233.636 29.58C232.956 30.3 232.161 30.865 231.251 31.275C230.351 31.685 229.381 31.89 228.341 31.89ZM228.341 27.75C228.981 27.75 229.556 27.58 230.066 27.24C230.576 26.89 230.976 26.43 231.266 25.86C231.556 25.29 231.701 24.67 231.701 24C231.701 23.31 231.546 22.68 231.236 22.11C230.936 21.53 230.531 21.07 230.021 20.73C229.511 20.39 228.951 20.22 228.341 20.22C227.711 20.22 227.141 20.395 226.631 20.745C226.121 21.095 225.716 21.555 225.416 22.125C225.126 22.695 224.981 23.32 224.981 24C224.981 24.71 225.131 25.35 225.431 25.92C225.741 26.48 226.151 26.925 226.661 27.255C227.171 27.585 227.731 27.75 228.341 27.75ZM247.412 16.5H251.822L243.602 39H239.222L241.922 31.5L236.522 16.5H241.052L243.992 25.845L247.412 16.5ZM259.748 31.89C258.368 31.89 257.108 31.535 255.968 30.825C254.838 30.115 253.933 29.165 253.253 27.975C252.583 26.775 252.248 25.45 252.248 24C252.248 22.9 252.443 21.875 252.833 20.925C253.223 19.965 253.758 19.125 254.438 18.405C255.128 17.675 255.928 17.105 256.838 16.695C257.748 16.285 258.718 16.08 259.748 16.08C261.128 16.08 262.383 16.435 263.513 17.145C264.653 17.855 265.558 18.81 266.228 20.01C266.908 21.21 267.248 22.54 267.248 24C267.248 25.09 267.053 26.11 266.663 27.06C266.273 28.01 265.733 28.85 265.043 29.58C264.363 30.3 263.568 30.865 262.658 31.275C261.758 31.685 260.788 31.89 259.748 31.89ZM259.748 27.75C260.388 27.75 260.963 27.58 261.473 27.24C261.983 26.89 262.383 26.43 262.673 25.86C262.963 25.29 263.108 24.67 263.108 24C263.108 23.31 262.953 22.68 262.643 22.11C262.343 21.53 261.938 21.07 261.428 20.73C260.918 20.39 260.358 20.22 259.748 20.22C259.118 20.22 258.548 20.395 258.038 20.745C257.528 21.095 257.123 21.555 256.823 22.125C256.533 22.695 256.388 23.32 256.388 24C256.388 24.71 256.538 25.35 256.838 25.92C257.148 26.48 257.558 26.925 258.068 27.255C258.578 27.585 259.138 27.75 259.748 27.75Z" fill="#02001E"/>
</svg>
