<svg width="40" height="40" viewBox="0 0 40 40" fill="none" xmlns="http://www.w3.org/2000/svg">
<rect width="40" height="40" rx="20" fill="#FFDD5E"/>
<path d="M24.8228 11.1452C23.8384 11.3327 23.0181 12.0905 22.7486 13.0631C22.7017 13.2389 22.6783 13.5592 22.6548 14.3717C22.6353 15.0358 22.6079 15.5045 22.5767 15.6022C22.4986 15.8561 22.3228 16.1764 22.1353 16.4108C21.9126 16.6803 21.6001 16.8874 20.7368 17.3366C20.0142 17.7116 19.9595 17.7624 19.9595 18.0085C19.9595 18.1764 20.147 18.3561 20.315 18.3561C20.4439 18.3561 21.397 17.8991 21.9556 17.567C22.4986 17.2506 22.9634 16.7194 23.1978 16.1491C23.397 15.6725 23.4361 15.3991 23.4361 14.4733C23.4361 14.0163 23.4556 13.5397 23.479 13.4108C23.5962 12.7585 24.1275 12.153 24.7408 11.9694L24.9204 11.9147V12.653C24.9204 13.3756 24.9243 13.3913 25.0142 13.5006C25.1079 13.6061 25.1158 13.61 25.6704 13.6335C26.1939 13.653 26.2525 13.6647 26.4908 13.7741C26.7915 13.9147 27.0181 14.1295 27.19 14.4303C27.3775 14.7624 27.3775 14.7624 28.1431 14.7624C28.8931 14.7624 29.0181 14.7936 29.1548 15.0319C29.2329 15.1647 29.2329 15.1647 29.1431 15.7155C29.0923 16.0202 29.022 16.3366 28.9868 16.4264C28.8814 16.6608 28.69 16.8561 28.4439 16.9772L28.2212 17.0866L27.1236 17.1061C25.9517 17.1256 25.9439 17.1295 25.8658 17.3327C25.8384 17.3991 25.815 18.0202 25.8072 18.942C25.7876 20.5358 25.7681 20.7702 25.5611 21.7155C25.4712 22.11 25.2564 22.8092 25.0493 23.36L24.9829 23.5397L25.4868 25.4694L25.9908 27.3991L26.2173 27.6374C26.4439 27.8756 26.4908 27.9967 26.3892 28.0788C26.354 28.11 26.1275 28.1217 25.6626 28.1139L24.9947 28.1022L24.1548 25.9342L23.3189 23.7663V22.8014V21.8327L23.2056 21.7077C23.1118 21.6022 23.065 21.5788 22.9283 21.5788C22.7915 21.5788 22.7447 21.6022 22.6509 21.7077L22.5376 21.8327V22.8717V23.9069L23.3228 25.946C23.7564 27.067 24.1197 28.0163 24.1314 28.0553C24.147 28.1178 24.0962 28.1217 23.4673 28.1217H22.7837L22.7368 27.8952C22.6197 27.3717 22.229 26.7858 21.7798 26.4616C21.3033 26.1256 20.9204 25.9967 20.2447 25.9538L19.815 25.9264L19.7251 25.3717C19.6743 25.071 19.5962 24.6881 19.5454 24.528C19.3228 23.8014 18.7525 23.1764 18.0454 22.8835C17.6704 22.7233 16.7173 22.5241 16.5884 22.571C16.4204 22.6374 16.315 22.8092 16.3384 22.9811C16.3736 23.2272 16.4556 23.2741 17.0884 23.4186C17.7564 23.571 18.0181 23.696 18.3345 24.0085C18.6626 24.3327 18.8111 24.6647 18.9283 25.3288C18.979 25.6295 19.022 25.8874 19.022 25.903C19.022 25.9186 18.4517 25.9342 17.7564 25.942L16.4868 25.9538L16.3697 26.067C16.2017 26.2272 16.1978 26.4577 16.3579 26.61L16.4673 26.7155H18.3228C19.3384 26.7155 20.3072 26.735 20.4673 26.7545C21.1626 26.8444 21.7837 27.3717 21.9712 28.0358L21.9986 28.1256L19.0142 28.11C16.1001 28.0983 16.0259 28.0983 15.7134 28.0124C14.2681 27.6295 13.229 26.446 13.0454 24.9733C12.9048 23.8717 13.3306 22.6569 14.1353 21.8405C14.5142 21.4577 14.8853 21.2272 16.2642 20.5202C17.5767 19.8444 17.6392 19.7975 17.6001 19.528C17.5728 19.3483 17.4204 19.2155 17.2368 19.2155C17.1314 19.2155 16.8072 19.3639 15.979 19.7858C15.3658 20.1022 14.729 20.4342 14.5689 20.528C14.1861 20.7467 13.6861 21.153 13.4283 21.446C13.1743 21.7389 13.1509 21.7116 13.1548 21.0944C13.1587 20.4069 13.3462 19.8131 13.7329 19.2897C13.9165 19.0397 14.3072 18.6803 14.5962 18.4967C14.979 18.2506 15.0962 17.9225 14.9204 17.5749C14.7798 17.2975 14.5962 17.2155 14.1392 17.2194C13.4751 17.2272 12.7447 17.446 12.1314 17.821C9.9595 19.1413 9.35404 21.942 10.7798 24.0631C11.022 24.4186 11.604 24.985 11.9908 25.2389L12.3228 25.4538L12.3931 25.7116C12.7525 27.0592 13.8462 28.2194 15.1861 28.6647C15.854 28.8913 15.5064 28.8756 21.1665 28.8913C26.979 28.9069 26.6431 28.9225 26.9283 28.6413C27.1314 28.442 27.2251 28.2272 27.2251 27.9655C27.2251 27.692 27.1197 27.4616 26.8814 27.2077L26.6978 27.0085L26.2525 25.2975L25.8072 23.5866L25.9868 23.0514C26.2095 22.3952 26.3775 21.7116 26.4868 21.0124C26.5533 20.5866 26.5728 20.2389 26.5884 19.192L26.6079 17.8952L27.4556 17.8795C28.1665 17.8639 28.3384 17.8483 28.5415 17.7819C29.1353 17.5866 29.6197 17.0944 29.7798 16.5202C29.8931 16.1217 30.0064 15.3366 29.9868 15.1178C29.9361 14.6413 29.5767 14.2038 29.1118 14.0592C28.9126 13.9967 28.7447 13.9811 28.3423 13.9811L27.8306 13.9772L27.6978 13.7819C27.3306 13.2428 26.5728 12.8522 25.8892 12.8483H25.7056L25.6939 12.0866L25.6822 11.3249L25.5767 11.2233C25.4478 11.0944 25.2173 11.071 24.8228 11.1452ZM13.7681 18.1295C12.6001 19.0631 12.0806 20.7428 12.5259 22.1569C12.5806 22.3327 12.6236 22.528 12.6236 22.5944C12.6236 22.6569 12.5611 22.8835 12.4868 23.0944C12.4126 23.3092 12.3306 23.6335 12.3033 23.817C12.2798 24.0045 12.2486 24.2272 12.2329 24.3131L12.2056 24.4694L11.8892 24.1569C11.3814 23.653 11.0728 23.1295 10.8931 22.4577C10.7681 21.9928 10.7681 21.1413 10.8931 20.6803C11.2368 19.403 12.2525 18.3913 13.5025 18.0866C13.9204 17.9811 13.9439 17.985 13.7681 18.1295Z" fill="#02001E"/>
<path d="M25.8104 14.6292C25.49 14.8089 25.5877 15.2894 25.9588 15.3401C26.2479 15.3792 26.4627 15.094 26.3494 14.8245C26.3221 14.762 26.2713 14.6839 26.2361 14.6565C26.1424 14.5784 25.9275 14.5628 25.8104 14.6292Z" fill="#02001E"/>
<path d="M18.5089 18.507C18.3253 18.6906 18.3682 18.9796 18.5987 19.1124C18.9034 19.296 19.2745 18.9562 19.1378 18.6242C19.0362 18.382 18.7003 18.3195 18.5089 18.507Z" fill="#02001E"/>
</svg>
