<svg width="14" height="14" viewBox="0 0 14 14" fill="none" xmlns="http://www.w3.org/2000/svg">
<g clip-path="url(#clip0_9486_3881)">
<g clip-path="url(#clip1_9486_3881)">
<path d="M6.76688 0.919141C6.6575 0.951953 5.21922 1.6793 5.14539 1.73672C5.11532 1.75859 5.86727 2.14688 8.19422 3.31445L11.2786 4.85938L12.1891 4.4082C12.6868 4.15938 13.097 3.95156 13.097 3.94336C13.097 3.91875 7.40672 0.979297 7.25907 0.930078C7.09774 0.875391 6.92 0.869922 6.76688 0.919141Z" fill="#FF8252"/>
<path d="M4.07344 2.28633C3.78086 2.43945 3.50469 2.58437 3.4582 2.60898L3.37891 2.65273L6.46055 4.19219L9.54219 5.73438L10.1711 5.41992L10.8 5.10547L7.70195 3.55781L4.60664 2.01016L4.07344 2.28633Z" fill="#FF8252"/>
<path d="M1.88125 3.41523C1.34258 3.69414 0.902344 3.9293 0.902344 3.9375C0.902344 3.9457 2.275 4.6375 3.95117 5.47695L7 7L8.02539 6.48867L9.05078 5.97461L5.98281 4.43789C4.29297 3.59297 2.90117 2.90117 2.88477 2.90391C2.87109 2.90391 2.41719 3.13359 1.88125 3.41523Z" fill="#FF8252"/>
<path d="M0.880469 7.06055L0.888672 9.74844L0.9625 9.89883C1.00352 9.98086 1.08281 10.0957 1.14297 10.1531C1.21953 10.227 1.98789 10.6398 4.00859 11.6871L6.76758 13.1172L6.77578 10.2434C6.78125 7.96836 6.77305 7.36406 6.74844 7.33945C6.7293 7.32305 5.40039 6.64766 3.79258 5.84102L0.875 4.37266L0.880469 7.06055Z" fill="#FF8252"/>
<path d="M12.2445 4.81758L11.375 5.25508V6.93672V8.61836L11.3066 8.68398C11.2711 8.72227 11.2082 8.75234 11.1699 8.75234C11.1316 8.75234 10.9402 8.67305 10.7461 8.57461C10.552 8.47617 10.3797 8.39687 10.3688 8.39687C10.3551 8.39687 10.1664 8.66211 9.95313 8.9875C9.73711 9.31016 9.5375 9.58906 9.51289 9.60273C9.42813 9.64648 9.32422 9.63008 9.25586 9.55898L9.1875 9.49336V7.93203C9.1875 7.07617 9.1793 6.37344 9.16836 6.37344C9.15469 6.37344 8.71719 6.59492 8.18945 6.86289L7.23242 7.34961L7.22422 10.2398L7.21875 13.1328L7.55234 12.9551C7.73828 12.8594 8.96602 12.2223 10.2813 11.5414C11.5965 10.8605 12.7176 10.2699 12.7695 10.2289C12.8215 10.1879 12.9063 10.1031 12.9527 10.0402C13.1305 9.80781 13.125 9.91445 13.1195 7.01055L13.1113 4.38281L12.2445 4.81758Z" fill="#FF8252"/>
<path d="M10.2621 5.82461L9.625 6.14453V7.41602V8.6875L9.88203 8.30195C10.0242 8.08867 10.1609 7.9082 10.1855 7.89727C10.2758 7.86445 10.3414 7.88359 10.6367 8.03125L10.9375 8.18164V6.8418C10.9375 6.10625 10.9293 5.50195 10.9184 5.50469C10.9047 5.50469 10.6094 5.64961 10.2621 5.82461Z" fill="#FF8252"/>
</g>
</g>
<defs>
<clipPath id="clip0_9486_3881">
<rect width="14" height="14" fill="white"/>
</clipPath>
<clipPath id="clip1_9486_3881">
<rect width="14" height="14" fill="white"/>
</clipPath>
</defs>
</svg>
