<svg width="29" height="24" viewBox="0 0 29 24" fill="none" xmlns="http://www.w3.org/2000/svg">
<path d="M13.0906 18.4406C13.0906 16.932 12.6896 15.6669 11.8875 14.64C11.3191 13.9337 10.5484 13.4691 9.57363 13.248C8.61461 13.0286 7.70789 13.0131 6.88836 13.2C6.60937 11.5714 7.06273 9.84686 8.21356 8.01943C9.36439 6.19372 10.8552 4.81886 12.6739 3.9L9.91714 0C8.52219 0.678857 7.19699 1.53943 5.97642 2.58C4.7384 3.62057 3.63988 4.81714 2.66342 6.16971C1.68696 7.52229 0.95461 9.04971 0.483815 10.7811C0.013021 12.5126 -0.117755 14.2783 0.10718 16.0954C0.400119 18.4954 1.18826 20.4154 2.47161 21.8383C3.75322 23.28 5.35218 24 7.26325 24C8.94591 24 10.3426 23.5029 11.4481 22.4949C12.5431 21.5074 13.0872 20.1549 13.0872 18.4354L13.0906 18.4406ZM29 18.4406C29 16.932 28.599 15.6669 27.7969 14.64C27.2284 13.92 26.4542 13.4537 25.483 13.2394C24.5065 13.0269 23.612 13.0166 22.7977 13.2017C22.5187 11.5903 22.9547 9.85886 24.109 8.02457C25.2598 6.20743 26.7472 4.836 28.5658 3.91029L25.816 0C24.4211 0.678857 23.1046 1.53943 21.8753 2.58C20.626 3.63599 19.5165 4.84199 18.5728 6.16971C17.6033 7.524 16.8814 9.04971 16.4106 10.7811C15.9342 12.5115 15.8057 14.3167 16.0322 16.0954C16.3217 18.4954 17.1063 20.4154 18.3862 21.8383C19.6643 23.268 21.258 23.9846 23.1691 23.9846C24.8553 23.9846 26.252 23.4874 27.3575 22.4811C28.4507 21.4937 29 20.1411 29 18.4217V18.4406Z" fill="#556B2F"/>
</svg>
