<svg width="18" height="16" viewBox="0 0 18 16" fill="none" xmlns="http://www.w3.org/2000/svg">
<path d="M8.51536 0.409554C8.64294 -0.0931153 9.35706 -0.0931156 9.48464 0.409554L10.7786 5.50795C10.8379 5.7416 11.0555 5.89968 11.296 5.88387L16.5447 5.539C17.0622 5.505 17.2829 6.18417 16.8442 6.46083L12.3952 9.26694C12.1913 9.39554 12.1082 9.65131 12.1976 9.8752L14.1475 14.7604C14.3398 15.2421 13.762 15.6619 13.3634 15.3302L9.31978 11.966C9.13447 11.8119 8.86553 11.8119 8.68022 11.966L4.63663 15.3302C4.23796 15.6619 3.66023 15.2421 3.85248 14.7604L5.80241 9.8752C5.89177 9.65131 5.80867 9.39554 5.60477 9.26694L1.15577 6.46083C0.717124 6.18417 0.937799 5.505 1.45529 5.539L6.704 5.88387C6.94454 5.89968 7.16212 5.7416 7.22142 5.50795L8.51536 0.409554Z" fill="#F0CA00"/>
</svg>
