<svg width="40" height="41" viewBox="0 0 40 41" fill="none" xmlns="http://www.w3.org/2000/svg">
<rect y="0.5" width="40" height="40" rx="20" fill="#8FA31E"/>
<g clip-path="url(#clip0_30_51)">
<path d="M20 16.5C19.725 16.5 19.5 16.275 19.5 16V15.5C19.5 14.1187 20.6188 13 22 13H22.5C22.775 13 23 13.225 23 13.5V14C23 15.3812 21.8813 16.5 20.5 16.5H20ZM13 22C13 19.6156 14.1156 17 16.5 17C17.3531 17 18.3656 17.3219 19.0844 17.6031C19.6719 17.8313 20.3312 17.8313 20.9187 17.6031C21.6344 17.325 22.65 17 23.5031 17C25.8875 17 27.0031 19.6156 27.0031 22C27.0031 26 24.5031 29 22.0031 29C21.4875 29 20.8125 28.7938 20.3938 28.6469C20.1406 28.5594 19.8656 28.5594 19.6125 28.6469C19.1938 28.7938 18.5188 29 18.0031 29C15.5031 29 13.0031 26 13.0031 22H13Z" fill="white"/>
</g>
<defs>
<clipPath id="clip0_30_51">
<rect width="14" height="16" fill="white" transform="translate(13 12.5)"/>
</clipPath>
</defs>
</svg>
