<svg width="36" height="36" viewBox="0 0 36 36" fill="none" xmlns="http://www.w3.org/2000/svg">
<rect width="36" height="36" rx="6" fill="#02001E" fill-opacity="0.06"/>
<g clip-path="url(#clip0_9486_3996)">
<path d="M14.665 12.8574C12.9014 13.748 11.4248 14.5127 11.3838 14.5566L11.3047 14.6328V18.3242V22.0156L11.3926 22.1006C11.4424 22.1475 12.0254 22.458 12.6904 22.792C14.0498 23.4746 14.0234 23.4658 14.2139 23.2607C14.29 23.1787 14.3076 23.1348 14.3076 23.0352C14.3076 22.7891 14.2988 22.7832 13.1123 22.1826L12.0225 21.6318V18.5088C12.0225 16.0244 12.0313 15.3916 12.0576 15.4033C12.0781 15.4092 13.335 16.042 14.8496 16.8096L17.6035 18.2012L17.6123 21.3242C17.6152 23.041 17.6123 24.4473 17.6006 24.4473C17.5918 24.4473 17.1201 24.21 16.5488 23.9199C15.9688 23.624 15.4795 23.3926 15.4355 23.3926C15.2334 23.3926 15.0693 23.5566 15.0693 23.7588C15.0693 23.9902 15.0488 23.9785 16.5166 24.7227C17.6563 25.3027 17.8965 25.4141 17.999 25.4141C18.1045 25.4141 18.3711 25.2881 19.6807 24.626C20.5361 24.1924 21.9746 23.4658 22.877 23.0117C23.7852 22.5518 24.5557 22.1475 24.6055 22.1006L24.6934 22.0156V18.3242V14.6328L24.6055 14.5479C24.5527 14.498 23.2051 13.8008 21.3184 12.8486C18.5234 11.4365 18.1045 11.2344 17.9932 11.2373C17.8848 11.2373 17.3955 11.4775 14.665 12.8574ZM19.9268 12.9658C20.9844 13.502 22.2266 14.1289 22.6836 14.3633L23.5156 14.7881L22.874 15.1191L22.2324 15.4502L20.7031 14.6738C19.5488 14.0879 19.1504 13.9004 19.0713 13.9004C18.9922 13.9004 18.6787 14.0439 17.8555 14.4541C16.6514 15.0576 16.5928 15.0986 16.5928 15.3096C16.5928 15.5527 16.5723 15.5381 17.9609 16.2441C18.667 16.6016 19.2529 16.9033 19.2646 16.915C19.2764 16.9268 18.998 17.0791 18.6436 17.2549L17.9961 17.5771L17.2139 17.1816C16.7832 16.9648 15.5439 16.3379 14.46 15.793C13.376 15.2451 12.4971 14.791 12.5088 14.7822C12.5234 14.7676 17.9697 12.002 17.9932 11.999C17.999 11.9961 18.8691 12.4326 19.9268 12.9658ZM21.3945 15.8516C21.4004 15.8545 21.1104 16.0068 20.7529 16.1855L20.1055 16.5107L18.9336 15.916L17.7646 15.3213L18.415 14.9932L19.0684 14.668L20.2256 15.2539C20.8613 15.5762 21.3887 15.8457 21.3945 15.8516ZM23.9756 18.5117V21.6318L22.6221 22.3174C19.2998 23.999 18.4121 24.4473 18.3975 24.4473C18.3887 24.4473 18.3799 23.0439 18.3799 21.3271V18.207L19.0537 17.8701C19.4229 17.6855 19.7334 17.5332 19.7422 17.5332C19.751 17.5332 19.7568 18.3447 19.7568 19.335C19.7568 21.3154 19.751 21.2627 19.9326 21.3564C20.0527 21.418 20.2314 21.4121 20.3223 21.3418C20.3633 21.3096 20.5977 20.9316 20.8408 20.5068L21.2832 19.7334L21.6787 20.0293C22.124 20.3633 22.2354 20.4014 22.417 20.2871C22.6045 20.1729 22.5986 20.2256 22.5986 18.0547V16.083L23.2666 15.7402C23.6328 15.5498 23.9404 15.3945 23.9551 15.3945C23.9668 15.3945 23.9756 16.7979 23.9756 18.5117ZM21.8604 18.5264L21.8516 19.2324L21.5879 19.042C21.3008 18.8311 21.2422 18.8076 21.0957 18.834C20.9668 18.8574 20.8818 18.9541 20.6797 19.3057C20.5889 19.4668 20.5068 19.6045 20.501 19.6104C20.4951 19.6162 20.4893 19.0625 20.4893 18.3799V17.1377L21.1719 16.7979L21.8516 16.458L21.8604 17.1406C21.8633 17.5156 21.8633 18.1396 21.8604 18.5264Z" fill="#02001E"/>
</g>
<defs>
<clipPath id="clip0_9486_3996">
<rect width="15" height="15" fill="white" transform="translate(10.5 10.5)"/>
</clipPath>
</defs>
</svg>
