<svg width="36" height="36" viewBox="0 0 36 36" fill="none" xmlns="http://www.w3.org/2000/svg">
<rect width="36" height="36" rx="6" fill="#02001E" fill-opacity="0.06"/>
<g clip-path="url(#clip0_9486_3989)">
<path d="M17.6523 10.8408C17.3154 10.9316 17.0049 11.1807 16.8496 11.4854C16.8086 11.5645 16.5303 12.3877 16.2285 13.3135C15.9268 14.2393 15.6602 15.0361 15.6367 15.0801C15.6133 15.124 15.5547 15.1885 15.502 15.2178C15.4111 15.2734 15.3408 15.2764 13.5771 15.2764C11.5908 15.2764 11.5088 15.2822 11.2041 15.4375C11.0049 15.5371 10.7646 15.7803 10.665 15.9736C10.3984 16.498 10.4658 17.0576 10.8437 17.4766C10.9023 17.541 11.6143 18.0742 12.4258 18.666C13.2402 19.2578 13.9258 19.7705 13.9492 19.8086C14.0605 19.9756 14.0518 20.0078 13.46 21.8271C12.9473 23.4004 12.8945 23.5762 12.8828 23.8076C12.8477 24.3818 13.126 24.8242 13.6826 25.085C13.8379 25.1553 13.8877 25.1641 14.1777 25.1641C14.4795 25.1641 14.5117 25.1582 14.6934 25.0732C14.8047 25.0205 15.4961 24.54 16.29 23.9629C17.0605 23.4004 17.7344 22.917 17.79 22.8848C17.9072 22.8145 18.0742 22.8115 18.1914 22.873C18.2412 22.8965 18.9062 23.374 19.6709 23.9307C20.4502 24.499 21.1592 24.9941 21.2793 25.0557C21.4932 25.1611 21.5078 25.1641 21.8213 25.1641C22.1143 25.1641 22.1641 25.1553 22.3193 25.085C22.7119 24.9004 22.9639 24.625 23.0752 24.2617C23.1221 24.1006 23.1309 24.0098 23.1191 23.8076C23.1074 23.5762 23.0547 23.4004 22.542 21.8271C21.9502 20.0107 21.9414 19.9756 22.0527 19.8086C22.0762 19.7734 22.7588 19.2607 23.5703 18.6719C24.3818 18.0801 25.0938 17.5469 25.1523 17.4824C25.5361 17.0576 25.6035 16.501 25.3369 15.9736C25.2373 15.7803 24.9971 15.5371 24.7979 15.4375C24.4932 15.2822 24.4111 15.2764 22.4248 15.2764C20.6611 15.2764 20.5908 15.2734 20.5 15.2178C20.4473 15.1885 20.3887 15.124 20.3652 15.0801C20.3418 15.0361 20.0752 14.2393 19.7734 13.3135C19.4717 12.3877 19.1934 11.5645 19.1523 11.4854C19.0557 11.2949 18.8271 11.0576 18.6514 10.9609C18.3555 10.7998 17.9746 10.7529 17.6523 10.8408ZM18.2061 11.7285C18.2617 11.7578 18.332 11.8193 18.3584 11.8662C18.3848 11.9131 18.6543 12.71 18.9531 13.6357C19.2549 14.5615 19.5332 15.3848 19.5742 15.4639C19.665 15.6426 19.8789 15.874 20.0459 15.9707C20.3447 16.1465 20.248 16.1406 22.3721 16.1553C24.2881 16.1699 24.3262 16.1699 24.4053 16.2314C24.5283 16.3223 24.5957 16.4277 24.6133 16.5566C24.6455 16.8027 24.6514 16.7969 23.0869 17.9307C22.2959 18.5049 21.5811 19.041 21.4961 19.123C21.2471 19.3633 21.1064 19.6973 21.1064 20.0518C21.1064 20.2627 21.083 20.1836 21.71 22.1113C22.0205 23.0635 22.249 23.8193 22.249 23.8838C22.249 24.1973 21.8799 24.4053 21.6104 24.2412C21.5547 24.2061 20.8896 23.7285 20.1309 23.1777C19.3691 22.624 18.7012 22.1465 18.6455 22.1113C18.2764 21.8945 17.7227 21.8945 17.3564 22.1113C17.3008 22.1465 16.6738 22.5947 15.9648 23.1104C14.3125 24.3145 14.333 24.2998 14.1895 24.2998C13.958 24.2998 13.7822 24.1475 13.7617 23.9277C13.75 23.8047 13.8203 23.5645 14.2891 22.1172C14.9189 20.1836 14.8955 20.2627 14.8955 20.0518C14.8955 19.7178 14.7725 19.4043 14.5498 19.167C14.4736 19.085 13.7529 18.54 12.9443 17.9541C11.3477 16.7939 11.3564 16.8027 11.3887 16.5566C11.4062 16.4277 11.4736 16.3223 11.5967 16.2314C11.6758 16.1699 11.7139 16.1699 13.6299 16.1553C15.7627 16.1377 15.6572 16.1465 15.9648 15.9678C16.123 15.874 16.3398 15.6396 16.4277 15.4639C16.4687 15.3848 16.7471 14.5615 17.0488 13.6357C17.3477 12.71 17.6172 11.9131 17.6436 11.8662C17.7051 11.7607 17.8662 11.6729 18.001 11.6729C18.0566 11.6729 18.1504 11.6963 18.2061 11.7285Z" fill="#02001E"/>
</g>
<defs>
<clipPath id="clip0_9486_3989">
<rect width="15" height="15" fill="white" transform="translate(10.5 10.5)"/>
</clipPath>
</defs>
</svg>
