<svg width="36" height="36" viewBox="0 0 36 36" fill="none" xmlns="http://www.w3.org/2000/svg">
<rect width="36" height="36" rx="6" fill="#02001E" fill-opacity="0.06"/>
<g clip-path="url(#clip0_9486_4002)">
<path d="M12.8143 11.2666C12.6531 11.3398 12.5066 11.4746 12.4246 11.6299C12.366 11.7383 12.3602 11.7969 12.3514 12.3682C12.3426 12.9629 12.3455 12.9951 12.4041 13.1064C12.4422 13.168 12.5184 13.2471 12.5799 13.2822L12.6912 13.3438L18.0232 13.3379L23.3582 13.3291L23.4373 13.2676C23.6365 13.1211 23.6395 13.1094 23.6395 12.4121C23.6365 11.873 23.6307 11.7588 23.5867 11.668C23.5105 11.501 23.3611 11.3486 23.2 11.2754L23.0535 11.2051H17.9998C12.9812 11.2051 12.9461 11.208 12.8143 11.2666ZM22.7752 12.2744V12.4648H17.9998H13.2244V12.2744V12.084H17.9998H22.7752V12.2744Z" fill="#02001E"/>
<path d="M12.5869 13.6963C12.4697 13.7549 12.4492 13.7842 12.2764 14.1445C12.1738 14.3555 11.8018 15.1289 11.4502 15.8613L10.8086 17.1943V17.8682C10.8086 18.4893 10.8145 18.5508 10.8672 18.6387C10.9814 18.8262 11.0547 18.8496 11.5645 18.8496H12.0244L12.0303 21.6533C12.0391 24.4248 12.0391 24.46 12.1006 24.5625C12.1328 24.6182 12.2031 24.6943 12.2588 24.7295L12.3555 24.7969H18.001H23.6465L23.7432 24.7295C23.7959 24.6943 23.8691 24.627 23.9014 24.583C23.9629 24.501 23.9629 24.4893 23.9717 21.6738L23.9775 18.8496H24.4258C24.9502 18.8496 25.0322 18.8232 25.1436 18.6123C25.2109 18.4863 25.2109 18.4688 25.2021 17.8389L25.1934 17.1943L24.373 15.4805C23.5762 13.8223 23.5469 13.7666 23.4355 13.7021L23.3184 13.6348H18.0156H12.7129L12.5869 13.6963ZM23.6348 15.9668L24.3291 17.4199V17.6953V17.9707H18.0156H11.7021V17.6689V17.3701L12.3818 15.9434L13.0645 14.5166L18.001 14.5137H22.9404L23.6348 15.9668ZM13.4072 20.7217C13.416 22.5322 13.416 22.5674 13.4775 22.6465C13.5098 22.6904 13.5742 22.7549 13.6182 22.7871C13.6973 22.8486 13.7295 22.8486 15.8359 22.8574C17.9189 22.8633 17.9746 22.8633 18.0859 22.8076C18.1475 22.7754 18.2266 22.7021 18.2617 22.6494C18.3232 22.5498 18.3232 22.5264 18.3232 20.7129V18.8789H18.5576H18.792V21.3984V23.918H15.8623H12.9326V21.3984V18.8789H13.167H13.3984L13.4072 20.7217ZM17.4443 20.4316V21.9844H15.8623H14.2803V20.4316V18.8789H15.8623H17.4443V20.4316ZM21.6924 21.3984V23.918H20.6963H19.7002V21.3984V18.8789H20.6963H21.6924V21.3984ZM23.0986 21.3984V23.918H22.835H22.5713V21.3984V18.8789H22.835H23.0986V21.3984Z" fill="#02001E"/>
</g>
<defs>
<clipPath id="clip0_9486_4002">
<rect width="15" height="15" fill="white" transform="translate(10.5 10.5)"/>
</clipPath>
</defs>
</svg>
