<svg width="36" height="36" viewBox="0 0 36 36" fill="none" xmlns="http://www.w3.org/2000/svg">
<rect width="36" height="36" rx="6" fill="#02001E" fill-opacity="0.06"/>
<g clip-path="url(#clip0_9486_3982)">
<path d="M17.4436 10.5221C16.3567 10.6246 15.5305 10.8561 14.6282 11.3102C13.4387 11.9049 12.3372 12.9157 11.6135 14.0758C11.0891 14.9137 10.7083 15.9948 10.553 17.0787C10.5032 17.4244 10.5032 18.5787 10.553 18.9244C10.676 19.7887 10.9045 20.5446 11.262 21.2682C11.6633 22.0885 12.0588 22.6393 12.7092 23.2926C13.3567 23.9371 13.9163 24.3385 14.7043 24.7252C15.2551 24.9948 15.6096 25.1266 16.1692 25.2672C17.634 25.6364 19.1047 25.5661 20.5344 25.0592C20.9739 24.9039 21.7297 24.5231 22.1165 24.2653C23.7571 23.1696 24.9055 21.5055 25.3245 19.6129C25.4211 19.1735 25.4709 18.7604 25.4915 18.2506C25.5354 17.0026 25.2776 15.8131 24.7209 14.694C24.3577 13.9616 23.9504 13.3844 23.3792 12.7955C22.7522 12.1452 22.1194 11.6852 21.2961 11.278C20.429 10.8502 19.6204 10.6188 18.6594 10.5309C18.3606 10.5045 17.6838 10.4987 17.4436 10.5221ZM19.0403 11.5241C20.8977 11.8375 22.4709 12.8629 23.5022 14.4391C24.0002 15.195 24.3401 16.0885 24.4954 17.0494C24.5657 17.4977 24.5657 18.5055 24.4954 18.9537C24.179 20.9108 23.1067 22.5338 21.4426 23.5827C20.7307 24.0309 19.8694 24.3473 18.9524 24.4967C18.5012 24.567 17.4963 24.567 17.0481 24.4938C15.592 24.2565 14.3909 23.65 13.3684 22.6305C12.3577 21.6256 11.7424 20.4098 11.5051 18.9537C11.4348 18.5055 11.4348 17.4977 11.5051 17.0494C11.8127 15.1539 12.8147 13.5836 14.385 12.5348C15.2815 11.9342 16.3625 11.5592 17.4729 11.4567C17.7893 11.4274 18.6975 11.4684 19.0403 11.5241Z" fill="#02001E"/>
<path d="M17.8112 12.4158C17.7028 12.4656 17.6061 12.5681 17.5651 12.6765C17.5446 12.7322 17.5329 13.4001 17.5329 14.7126V16.6667L17.4069 16.7165C17.0817 16.8542 16.7653 17.2175 16.651 17.5955C16.569 17.8591 16.5837 18.2517 16.6803 18.5066C16.944 19.1863 17.7233 19.5642 18.4176 19.3474L18.6022 19.2888L19.5837 20.2703C20.1227 20.8064 20.6032 21.2634 20.6471 21.2781C21.028 21.4216 21.3971 21.0935 21.2829 20.7156C21.2536 20.613 21.0895 20.4343 20.2663 19.6081L19.2848 18.6238L19.3463 18.4246C19.4284 18.1667 19.4284 17.8357 19.3493 17.5808C19.235 17.2146 18.9186 16.8513 18.5963 16.7165L18.4704 16.6667L18.4645 14.6687C18.4557 12.7029 18.4557 12.6706 18.3942 12.5915C18.362 12.5476 18.3004 12.4831 18.2594 12.4538C18.1598 12.3806 17.9284 12.3601 17.8112 12.4158ZM18.236 17.5925C18.6462 17.824 18.4733 18.4685 18.0016 18.4685C17.6764 18.4685 17.442 18.1228 17.5592 17.8181C17.5915 17.7361 17.7321 17.5925 17.8112 17.5574C17.9225 17.5134 18.1217 17.5281 18.236 17.5925Z" fill="#02001E"/>
</g>
<defs>
<clipPath id="clip0_9486_3982">
<rect width="15" height="15" fill="white" transform="translate(10.5 10.5)"/>
</clipPath>
</defs>
</svg>
